<?xml version="1.0" encoding="utf-8"?>
<!-- Generator: Adobe Illustrator 23.1.0, SVG Export Plug-In . SVG Version: 6.00 Build 0)  -->
<svg version="1.1" id="Layer_1" xmlns="http://www.w3.org/2000/svg" xmlns:xlink="http://www.w3.org/1999/xlink" x="0px" y="0px"
	 viewBox="0 0 595.3 841.9" style="enable-background:new 0 0 595.3 841.9;" xml:space="preserve">
<g>
	<path d="M247.9,420.9c0-83.4,60.7-58.3,119.6-117.3s80.3-43.9,116.4-119.1c12.7-26.5-19.2-21-39.9-41.8s-16.4-54.8-41.7-39.9
		c-97.2,57.1-80.9,78.2-160.7,157.9S83.9,308.2,83.9,420.9c0,112.8,78,80.4,157.8,160.2S305.1,681.9,402.3,739
		c25.3,14.9,20.9-19.2,41.7-39.9s52.6-15.3,39.9-41.8c-36.1-75.2-46.4-74.1-116.5-119.2C292.2,489.7,247.9,504.3,247.9,420.9z"/>
</g>
</svg>
