<?xml version="1.0" encoding="utf-8"?>
<!-- Generator: Adobe Illustrator 23.1.0, SVG Export Plug-In . SVG Version: 6.00 Build 0)  -->
<svg version="1.1" id="Layer_1" xmlns="http://www.w3.org/2000/svg" xmlns:xlink="http://www.w3.org/1999/xlink" x="0px" y="0px"
	 viewBox="0 0 595.3 841.9" style="enable-background:new 0 0 595.3 841.9;" xml:space="preserve">
<g>
	<path d="M213,420.9c0-83.4,60.7-58.3,119.6-117.3S413,259.8,449,184.6c12.7-26.5-19.2-21-39.9-41.8s-16.4-54.8-41.7-39.9
		c-97.2,57.1-80.9,78.2-160.7,157.9S49,308.1,49,420.9s78,80.4,157.8,160.2s63.4,100.8,160.7,157.9c25.3,14.9,20.9-19.2,41.7-39.9
		s52.6-15.3,39.9-41.8C413,582,402.6,583.2,332.5,538C257.4,489.6,213,504.3,213,420.9z"/>
</g>
<g>
	<path d="M544.7,482.5c3.2-21.6-13.7-16-29.2-31.4c-15.4-15.4-32.6-8.3-32.5-30.2c0-21.9,17.2-14.8,32.7-30.3
		c15.5-15.5,14.1-16.9,29.6-32.4c0,0,1.7,0.7,1.7,0.7s-1.7,0.7-1.7,0.7c-20.7-20.8-19.3-22.1-40.1-42.9
		c-20.7-20.7-13.6-47.5-41.9-39.8c-49.5,13.5-37.2,34.6-73.5,70.8s-70.8,21.9-70.8,73.2c-0.1,51.2,34.5,36.9,70.7,73.1
		s23.9,57.3,73.3,70.7c28.3,7.7,17.7-23,41.8-39.7C529.8,507.6,540.5,511.5,544.7,482.5z"/>
</g>
</svg>
