<?xml version="1.0" encoding="utf-8"?>
<!-- Generator: Adobe Illustrator 23.1.0, SVG Export Plug-In . SVG Version: 6.00 Build 0)  -->
<svg version="1.1" id="Layer_1" xmlns="http://www.w3.org/2000/svg" xmlns:xlink="http://www.w3.org/1999/xlink" x="0px" y="0px"
	 viewBox="0 0 595.3 841.9" style="enable-background:new 0 0 595.3 841.9;" xml:space="preserve">
<g>
	<path d="M379,420.9c0-83.4-57.3-59.7-116.3-118.7s-83.5-41.6-119.5-116.8c-12.7-26.5,22.3-20.5,43.1-41.2s16-57.9,41.3-43.1
		c97.2,57.1,78.5,81.3,158.2,161S547,308.1,547,420.9s-81.4,79-161.1,158.8s-61,103.9-158.2,161c-25.3,14.9-20.6-22.3-41.3-43.1
		s-55.8-14.8-43.1-41.2c36.1-75.2,49.4-71.3,119.4-116.7C336.9,491.4,379,504.3,379,420.9z"/>
</g>
<g>
	<path d="M47.3,482.8c-3.2-21.6,17.1-14.9,32.5-30.3c15.4-15.4,29.2-9.7,29.2-31.6c0-21.9-13.8-16.2-29.3-31.7
		c-15.5-15.5-16.9-14.1-32.4-29.6c0,0,1.7-0.7,1.7-0.7s-1.7-0.7-1.7-0.7c20.7-20.8,22.1-19.3,42.9-40.1c20.7-20.7,12.7-50.8,41-43.1
		c49.5,13.5,35.3,37.9,71.5,74.2s74.1,20.5,74.2,71.8c0.1,51.2-37.9,35.5-74,71.7s-22,60.6-71.4,74c-28.3,7.7-16.9-26.9-41.2-43.3
		C64.6,505.9,51.6,511.8,47.3,482.8z"/>
</g>
</svg>
