<?xml version="1.0" encoding="utf-8"?>
<!-- Generator: Adobe Illustrator 23.1.0, SVG Export Plug-In . SVG Version: 6.00 Build 0)  -->
<svg version="1.1" id="Layer_1" xmlns="http://www.w3.org/2000/svg" xmlns:xlink="http://www.w3.org/1999/xlink" x="0px" y="0px"
	 viewBox="0 0 595.3 841.9" style="enable-background:new 0 0 595.3 841.9;" xml:space="preserve">
<g>
	<path d="M236.6,433.4c0-83.4,60.7-58.3,119.6-117.3s80.3-43.9,116.4-119.1c12.7-26.5-19.2-21-39.9-41.8s-16.4-54.8-41.7-39.9
		c-97.2,57.1-80.9,78.2-160.7,157.9S72.6,320.6,72.6,433.4s78,80.4,157.8,160.2S293.8,694.4,391,751.4
		c25.3,14.9,20.9-19.2,41.7-39.9s52.6-15.3,39.9-41.8c-36.1-75.2-46.4-74.1-116.5-119.2C280.9,502.1,236.6,516.8,236.6,433.4z"/>
</g>
<g>
	<path d="M542.7,375.6c-74.9-27.5-79.5-1.9-159.3-1.9s-84.4-25.6-159.3,1.9c-27.5,10.1-1.3,28.4-1.3,57.8c0,29.3-26.2,47.6,1.3,57.8
		c74.9,27.5,79.5,1.9,159.3,1.9s84.4,25.6,159.3-1.9c27.5-10.1-6-29.1,1.3-57.5C552,402,570.2,385.8,542.7,375.6z"/>
</g>
</svg>
