<?xml version="1.0" encoding="utf-8"?>
<!-- Generator: Adobe Illustrator 23.1.0, SVG Export Plug-In . SVG Version: 6.00 Build 0)  -->
<svg version="1.1" id="Layer_1" xmlns="http://www.w3.org/2000/svg" xmlns:xlink="http://www.w3.org/1999/xlink" x="0px" y="0px"
	 viewBox="0 0 595.3 841.9" style="enable-background:new 0 0 595.3 841.9;" xml:space="preserve">
<g>
	<path d="M331,420.9c0-83.4-57.3-59.7-116.3-118.7s-83.5-41.6-119.5-116.8c-12.7-26.5,22.3-20.5,43.1-41.2s16-57.9,41.3-43.1
		c97.2,57.1,78.5,81.3,158.2,161s161.1,46,161.1,158.8s-81.4,79-161.1,158.8s-61,103.9-158.2,161c-25.3,14.9-20.6-22.3-41.3-43.1
		s-55.8-14.8-43.1-41.2c36.1-75.2,49.4-71.3,119.4-116.7C288.9,491.4,331,504.3,331,420.9z"/>
</g>
</svg>
